# xmcd
#
# Track frame offsets: 
#        150
#        31391
#        78138
#        109947
#        152297
#        194049
#        242327
#        276535
#
# Disc length: 4176 seconds
#
# Revision: 3
# Processed by: cddbd v1.5.2PL0 Copyright (c) Steve Scherf et al.
# Submitted via: ExactAudioCopy v1.1
#
DISCID=61104e08
DTITLE=John Coltrane - Fearless Leader CD5
DYEAR=1958
DGENRE=Jazz
TTITLE0=Spring Is Here (stereo)
TTITLE1=Invitation (stereo)
TTITLE2=I'm A Dreamer, Aren't We All (stereo)
TTITLE3=Love Thy Neighbor (stereo)
TTITLE4=Don't Take Your Love From Me (stereo)
TTITLE5=Stardust (stereo)
TTITLE6=My Ideal (stereo)
TTITLE7=I'll Get By (stereo)
EXTD=YEAR: 1958
EXTT0=
EXTT1=
EXTT2=
EXTT3=
EXTT4=
EXTT5=
EXTT6=
EXTT7=
PLAYORDER=
